# xmcd
#
# Track frame offsets:
#	150
#	16555
#	37353
#	50784
#	67740
#	83018
#	97591
#	114310
#	126839
#	141532
#	158265
#	176738
#
# Disc length: 2611 seconds
# Revision: 0
# Processed by: cddbd v1.5.2PL0 Copyright (c) Steve Scherf et al.
# Submitted via: dBpowerAMP V12.0
#
DISCID=910a310c
DTITLE=Michael Bram - Suitcase In The Hall
DYEAR=2012
DGENRE=Blues
TTITLE0=It Don't Matter Where You Get Your Appetite
TTITLE1=Nobody Wins
TTITLE2=I Love You So Much It Hurts
TTITLE3=Got Love If You Want It
TTITLE4=Watch Out!
TTITLE5=Suitcase In The Hall
TTITLE6=Howlin' For My Darlin'
TTITLE7=Chinese Hot Mustard
TTITLE8=The Way You've Changed
TTITLE9=I'm Going Away And Leave My Baby
TTITLE10=Drinking Champagne
TTITLE11=Can I Sleep In Your Arms
EXTD=
EXTT0=
EXTT1=
EXTT2=
EXTT3=
EXTT4=
EXTT5=
EXTT6=
EXTT7=
EXTT8=
EXTT9=
EXTT10=
EXTT11=
PLAYORDER=
